<?xml version="1.0" encoding="UTF-8"?>
<!-- Generator: visioncortex VTracer 0.6.12 -->
<svg version="1.1" xmlns="http://www.w3.org/2000/svg" width="1024" height="1024">
<path d="M0 0 C0.70906494 0.56436768 1.41812988 1.12873535 2.14868164 1.71020508 C2.47348511 1.97458374 2.47348511 1.97458374 4.1171875 3.3125 C4.69839355 3.78300781 5.27959961 4.25351563 5.87841797 4.73828125 C7.125 6 7.125 6 7.125 8 C7.69573242 8.24621094 8.26646484 8.49242187 8.85449219 8.74609375 C11.5034281 10.20898997 13.31048546 11.92645319 15.453125 14.0625 C16.25234375 14.85914063 17.0515625 15.65578125 17.875 16.4765625 C18.2875 16.89292969 18.2875 16.89292969 20.375 19 C21.21546875 19.83273438 22.0559375 20.66546875 22.921875 21.5234375 C23.31890625 21.92175781 23.31890625 21.92175781 25.328125 23.9375 C26.05676758 24.66839844 26.78541016 25.39929688 27.53613281 26.15234375 C29.125 28 29.125 28 29.125 30 C29.69992187 30.23074219 30.27484375 30.46148437 30.8671875 30.69921875 C33.70632029 32.3349129 35.21351392 34.24622695 37.25 36.8125 C38.03503906 37.79863281 38.82007813 38.78476563 39.62890625 39.80078125 C40.46199582 40.86636093 41.29400962 41.93278246 42.125 43 C42.33310303 43.26578857 42.33310303 43.26578857 43.38623047 44.61083984 C60.80723634 66.89602167 76.67899098 90.16084647 88.98242188 115.67895508 C89.87041123 117.48282577 90.78290595 119.27464194 91.70507812 121.0612793 C95.79702131 129.04090613 99.32368004 137.09431463 102.50537109 145.47680664 C103.24952918 147.43626027 104.00473276 149.39117409 104.76171875 151.34570312 C109.88814212 164.65585206 114.35659333 178.06891015 117.75537109 191.92456055 C118.2495108 193.93550917 118.7549436 195.94337467 119.26171875 197.95117188 C131.38957291 246.49654667 133.5644762 298.64533077 125.125 348 C124.90537598 349.29180176 124.68575195 350.58360352 124.45947266 351.91455078 C120.19368206 376.23227424 113.80372595 399.89124491 105.125 423 C104.83044922 423.79116211 104.53589844 424.58232422 104.23242188 425.39746094 C90.07982812 463.07148212 69.9706924 497.45057947 45.125 529 C44.75826172 529.46986328 44.75826172 529.46986328 42.90234375 531.84765625 C39.50194965 536.16329662 36.06248454 540.17501502 32.125 544 C31.568125 544.763125 31.01125 545.52625 30.4375 546.3125 C30.004375 546.869375 29.57125 547.42625 29.125 548 C28.465 548 27.805 548 27.125 548 C27.125 548.66 27.125 549.32 27.125 550 C25.55078125 551.55078125 25.55078125 551.55078125 23.4375 553.3125 C21.02642236 555.35916169 18.7392631 557.3857369 16.5 559.625 C13.84911634 562.27588366 11.00410698 564.60074418 8.125 567 C7.34382813 567.78375 6.56265625 568.5675 5.7578125 569.375 C-8.01750496 583.10944115 -24.92693414 593.96498829 -42.05322266 603.02978516 C-43.7599228 603.93871391 -45.44908652 604.88035737 -47.13671875 605.82421875 C-74.8417989 620.69606515 -110.14617215 627.78059432 -140.92578125 619.265625 C-154.14421407 615.1964275 -165.60431364 608.97585928 -176.125 600.0625 C-176.70378906 599.57249512 -177.28257812 599.08249023 -177.87890625 598.57763672 C-191.2592462 586.92366821 -201.32448013 570.5919688 -203.22070312 552.74658203 C-204.55422552 532.70732642 -202.1608317 515.29649577 -189.875 499 C-189.23046875 498.08992187 -188.5859375 497.17984375 -187.921875 496.2421875 C-171.49154813 474.39593808 -144.03487811 467.43323385 -118.95556641 460.55053711 C-111.70152655 458.55060202 -104.57249657 456.33700274 -97.47265625 453.84765625 C-94.875 453 -94.875 453 -92.875 453 C-92.89820313 451.94683594 -92.92140625 450.89367187 -92.9453125 449.80859375 C-93.41953827 419.51830754 -83.85927397 396.57671092 -65.75 372.5 C-53.80165515 356.17059537 -48.39828155 336.75197756 -51.37109375 316.64453125 C-53.65452003 306.67227977 -57.15283506 297.84056278 -65.875 292 C-75.03895719 286.68490483 -84.96459212 287.69613231 -95.1953125 288.296875 C-112.64011797 289.31819506 -127.35964399 288.48955434 -141.6875 277.3125 C-148.49371129 270.85090701 -153.91020552 262.79640152 -157.8125 254.30078125 C-158.875 252 -158.875 252 -160.0625 249.91796875 C-162.77123723 245.14946258 -164.21184519 240.47516744 -162.875 235 C-160.12735832 230.98332718 -157.73455162 229.10271366 -153.28125 227.203125 C-152.1773291 226.72359375 -151.0734082 226.2440625 -149.93603516 225.75 C-148.76089355 225.255 -147.58575195 224.76 -146.375 224.25 C-144.54812979 223.45862558 -142.72126243 222.66724383 -140.89492798 221.87463379 C-139.06044229 221.08061584 -137.22309271 220.29322545 -135.38574219 219.50585938 C-130.40860637 217.37102115 -125.44985386 215.19722474 -120.5 213 C-119.69369141 212.65098633 -118.88738281 212.30197266 -118.05664062 211.94238281 C-110.22955166 208.47378912 -106.43137564 204.84813742 -102.875 197 C-95.83592247 181.70456085 -95.83592247 181.70456085 -88.875 176 C-88.1325 175.29875 -87.39 174.5975 -86.625 173.875 C-82.34551194 170.95716723 -77.62651233 169.03041858 -72.875 167 C-72.74999508 159.41544226 -73.12107257 151.98771686 -73.8125 144.4375 C-74.94695744 131.3052048 -75.47744136 118.17276618 -75.875 105 C-71.875 105 -71.875 105 -68.921875 107.67578125 C-67.80980101 108.87600026 -66.71155005 110.0891263 -65.625 111.3125 C-65.04580811 111.9526001 -64.46661621 112.5927002 -63.86987305 113.25219727 C-59.12672931 118.5648096 -54.85360921 124.09071009 -50.875 130 C-50.44493652 130.63744141 -50.01487305 131.27488281 -49.57177734 131.93164062 C-46.64824185 136.27169262 -43.75313009 140.62972459 -40.875 145 C-40.86041748 144.2972998 -40.84583496 143.59459961 -40.83081055 142.87060547 C-39.89135992 102.03271984 -39.89135992 102.03271984 -35.875 94 C-33.37058258 94.37822226 -32.13751539 94.72800068 -30.35449219 96.57543945 C-29.88172852 97.24792725 -29.40896484 97.92041504 -28.921875 98.61328125 C-28.38908936 99.36085693 -27.85630371 100.10843262 -27.30737305 100.87866211 C-26.75218994 101.68182861 -26.19700684 102.48499512 -25.625 103.3125 C-25.0472583 104.13049072 -24.4695166 104.94848145 -23.87426758 105.79125977 C-20.05128101 111.22814666 -16.33758899 116.73224956 -12.69140625 122.2890625 C-10.86200233 125.01939867 -8.9506501 127.66768218 -7 130.3125 C3.27914461 144.37550295 12.25163818 157.72981338 15.74560547 175.08935547 C17.26654175 182.5182061 19.73355637 186.76306229 25.125 192 C28.27517921 196.229458 31.17590388 200.62883084 34.125 205 C34.39441406 205.37705078 34.39441406 205.37705078 35.7578125 207.28515625 C40.31372402 213.74558816 43.63992048 220.79440477 47.08837891 227.8828125 C48.42979689 230.62251498 49.80520821 233.34441255 51.18066406 236.06713867 C54.44038914 242.52730672 57.57296084 249.0345307 60.60595703 255.60400391 C63.32012328 261.4676717 66.19693702 267.24040359 69.125 273 C70.49185665 267.21714495 71.63653178 261.40959941 72.6875 255.5625 C72.81423096 254.87164307 72.94096191 254.18078613 73.0715332 253.46899414 C74.64576649 244.57327717 75.28979128 235.71018178 75.3984375 226.68359375 C75.40470154 226.2025116 75.40470154 226.2025116 75.43640137 223.76794434 C75.83024084 186.19324471 71.63777683 151.33083744 58.125 116 C58.00656738 115.68345459 58.00656738 115.68345459 57.40722656 114.08154297 C53.63758681 104.03175578 49.06999519 94.51412375 44.125 85 C43.79741699 84.36030273 43.46983398 83.72060547 43.13232422 83.06152344 C33.71310054 64.67362192 22.11880736 47.78784085 8.70703125 32.07421875 C7.125 30 7.125 30 7.125 28 C6.53074219 27.74476563 5.93648437 27.48953125 5.32421875 27.2265625 C2.89693972 25.87280474 1.67520817 24.5289 -0.0625 22.375 C-3.42893827 18.36454745 -7.14436677 15.02300147 -11.15234375 11.6640625 C-11.43658203 11.38949219 -11.43658203 11.38949219 -12.875 10 C-12.875 9.34 -12.875 8.68 -12.875 8 C-14.525 7.34 -16.175 6.68 -17.875 6 C-17.875 5.34 -17.875 4.68 -17.875 4 C-18.62007812 3.73316406 -19.36515625 3.46632812 -20.1328125 3.19140625 C-22.81604069 2.02561622 -24.53538907 0.81858519 -26.75 -1.0625 C-50.36461999 -19.78330072 -81.74043108 -30.17854219 -111.875 -28 C-123.60331576 -26.54990486 -134.98564987 -23.58215228 -145.875 -19 C-146.8753125 -18.58234375 -147.875625 -18.1646875 -148.90625 -17.734375 C-172.12225815 -7.10388706 -188.50417595 13.48970726 -198.38671875 36.5234375 C-207.74796471 61.99277336 -206.57423426 90.00505953 -196.28125 114.984375 C-190.12138877 128.19385519 -181.84255557 139.52290235 -171.29296875 149.4921875 C-165.154724 155.8585092 -164.5668349 161.49362503 -164.66015625 170.02734375 C-165.13890845 176.65153333 -168.33621885 181.25896947 -172.875 186 C-175.021768 187.65615561 -177.12856973 189.18757192 -179.375 190.6875 C-189.55662416 197.7300827 -199.72297576 205.63232302 -207.875 215 C-208.32037109 215.45697266 -208.32037109 215.45697266 -210.57421875 217.76953125 C-214.55771491 223.44363586 -213.39228706 230.81553666 -213.1875 237.4375 C-213.16238563 238.85087201 -213.13957798 240.264287 -213.11914062 241.67773438 C-213.06439255 245.1193913 -212.97829691 248.55941824 -212.875 252 C-212.10164307 251.22495117 -211.32828613 250.44990234 -210.53149414 249.65136719 C-208.82417845 247.94734656 -207.10492756 246.25515615 -205.37109375 244.578125 C-196.7203452 235.64307955 -191.67259146 226.21866316 -188.03125 214.421875 C-186.875 211 -186.875 211 -184.875 209 C-181.875 208.75 -181.875 208.75 -178.875 209 C-176.875 211 -176.875 211 -176.5859375 214.16796875 C-176.89491139 218.26396043 -177.91040221 221.57660367 -179.5 225.3125 C-179.76635254 225.95968994 -180.03270508 226.60687988 -180.30712891 227.27368164 C-182.65872798 232.82756077 -185.53946401 237.97303974 -188.875 243 C-187.6375 242.9175 -186.4 242.835 -185.125 242.75 C-181.76993302 242.7262052 -181.12052096 242.80358323 -178.375 245 C-177.88 245.66 -177.385 246.32 -176.875 247 C-177.5234375 249.39453125 -177.5234375 249.39453125 -178.875 252 C-181.4140625 253.07421875 -181.4140625 253.07421875 -184.5 253.6875 C-185.04076172 253.80480469 -185.04076172 253.80480469 -187.77734375 254.3984375 C-189.55973915 254.74457734 -191.34309639 255.08599344 -193.12890625 255.4140625 C-199.001314 256.6241344 -203.14329875 259.49908809 -207.875 263 C-208.74125 263.61875 -209.6075 264.2375 -210.5 264.875 C-223.22703864 276.26235036 -233.37372943 291.48947514 -241.125 306.5625 C-241.640625 307.53896484 -242.15625 308.51542969 -242.6875 309.52148438 C-245.65860602 315.24545796 -248.0139282 320.82404597 -249.875 327 C-249.45089844 326.49210937 -249.02679687 325.98421875 -248.58984375 325.4609375 C-244.72753993 320.92803587 -240.79185132 316.42493074 -235.875 313 C-235.215 313 -234.555 313 -233.875 313 C-233.875 312.34 -233.875 311.68 -233.875 311 C-221.19328471 301.17333056 -196.22736408 284.66257525 -179.06640625 286.26171875 C-176.875 287 -176.875 287 -175.4375 289.3125 C-174.875 292 -174.875 292 -175.58154297 294.06152344 C-177.1892126 296.47090375 -178.26840137 296.85429338 -181.0078125 297.703125 C-181.81347656 297.9609375 -182.61914062 298.21875 -183.44921875 298.484375 C-184.29097656 298.73703125 -185.13273438 298.9896875 -186 299.25 C-186.84949219 299.518125 -187.69898438 299.78625 -188.57421875 300.0625 C-190.67062616 300.72204391 -192.77040665 301.36716355 -194.875 302 C-193.91078125 302.31453125 -192.9465625 302.6290625 -191.953125 302.953125 C-190.67687396 303.38479815 -189.40084371 303.81712445 -188.125 304.25 C-187.80789063 304.35248047 -187.80789063 304.35248047 -186.203125 304.87109375 C-182.20114547 306.24677421 -179.51632046 307.66394016 -176.875 311 C-176.37459864 313.93092226 -176.46938836 315.3239806 -178 317.875 C-179.875 319 -179.875 319 -182.4375 318.9375 C-185.31554494 318.15257865 -187.82681322 317.21756775 -190.5625 316.0625 C-197.85903919 313.04058995 -205.95634004 311.22366079 -213.875 312 C-231.34979438 319.63912101 -245.25877847 335.81419365 -252.75 353.0625 C-257.93548653 366.74335808 -260.05381428 379.51197982 -259.98179626 394.07226562 C-259.98123956 395.0228482 -259.98068285 395.97343077 -259.98010927 396.95281887 C-259.97709912 400.1039896 -259.96693322 403.25509482 -259.95678711 406.40625 C-259.95322714 408.67883742 -259.9501422 410.95142562 -259.94749451 413.22401428 C-259.94096631 418.09988341 -259.93142225 422.97573389 -259.91959953 427.85159302 C-259.90126097 435.55722652 -259.89169669 443.2628556 -259.88368225 450.96850586 C-259.87179339 461.76530414 -259.85782051 472.56209566 -259.84057617 483.35888672 C-259.83948605 484.04271128 -259.83839593 484.72653585 -259.83727277 485.43108237 C-259.82163091 495.15557215 -259.80302679 504.8800541 -259.7832749 514.60453629 C-259.78188158 515.29078639 -259.78048827 515.97703648 -259.77905273 516.68408203 C-259.7776592 517.36949184 -259.77626567 518.05490165 -259.77482992 518.76108146 C-259.75181408 530.18021606 -259.73660434 541.59934048 -259.72749335 553.01849556 C-259.72094041 560.68396758 -259.70536257 568.34935242 -259.68317592 576.01479435 C-259.67147896 580.77092257 -259.66808052 585.52702933 -259.66707802 590.2831707 C-259.66492372 592.49435476 -259.65930885 594.70553846 -259.6500473 596.91670418 C-259.63792713 599.92574627 -259.63800196 602.93454461 -259.64122009 605.94360352 C-259.63471229 606.82617073 -259.62820449 607.70873795 -259.62149948 608.61804962 C-259.64678486 614.65767729 -259.64678486 614.65767729 -261.875 618 C-263.75 618.3984375 -263.75 618.3984375 -265.875 618.375 C-266.57625 618.38273438 -267.2775 618.39046875 -268 618.3984375 C-269.875 618 -269.875 618 -271.875 615 C-272.126849 613.1269815 -272.126849 613.1269815 -272.12947559 610.97600937 C-272.13530779 610.15458915 -272.14113998 609.33316892 -272.14714891 608.48685718 C-272.14525925 608.0356685 -272.14525925 608.0356685 -272.13569641 605.75238037 C-272.13952196 604.79319804 -272.14334751 603.83401572 -272.14728898 602.84576726 C-272.15764732 599.61554767 -272.15362098 596.38550494 -272.1496582 593.15527344 C-272.15400411 590.84375341 -272.15918685 588.53223482 -272.16514587 586.22071838 C-272.17858602 579.9188755 -272.17910711 573.61709243 -272.17658257 567.315238 C-272.17537691 561.36329403 -272.18159622 555.4113601 -272.18701603 549.45941916 C-272.19791117 536.90686877 -272.19572445 524.35434517 -272.18963119 511.80179325 C-272.1845053 500.41164397 -272.19559795 489.02158136 -272.21472941 477.63144919 C-272.23430806 465.88241891 -272.24232648 454.13342912 -272.23860615 442.38438249 C-272.2367182 435.81089451 -272.23921448 429.23747013 -272.25332069 422.66399384 C-272.37860179 358.83571323 -271.91924442 290.95974577 -236.875 235 C-236.47240967 234.35144043 -236.06981934 233.70288086 -235.6550293 233.03466797 C-229.87914385 223.84558938 -223.40121232 215.55918938 -216.17480469 207.47167969 C-215.07309838 206.22429321 -214.00524279 204.947136 -212.9453125 203.6640625 C-208.24215902 197.97077144 -202.66069841 193.54663734 -196.875 189 C-194.91313074 187.44842307 -192.95341764 185.89422176 -190.99609375 184.33691406 C-189.6968659 183.30401521 -188.39491371 182.27453086 -187.08984375 181.24902344 C-177.26270713 173.45960331 -177.26270713 173.45960331 -176.2109375 169.5 C-176.31767516 162.66878981 -176.31767516 162.66878981 -179.375 159 C-180.2 158.34 -181.025 157.68 -181.875 157 C-181.875 156.34 -181.875 155.68 -181.875 155 C-182.43832031 154.78601563 -183.00164062 154.57203125 -183.58203125 154.3515625 C-198.19501682 145.73811615 -209.06782498 118.102332 -213.2331543 102.68676758 C-215.60755317 92.7475285 -216.23493448 82.87642549 -216.1875 72.6875 C-216.18468018 72.05021973 -216.18468018 72.05021973 -216.17041016 68.82519531 C-215.87421929 45.82788054 -208.92359724 21.03036263 -193.875 3 C-193.215 3 -192.555 3 -191.875 3 C-191.606875 2.195625 -191.33875 1.39125 -191.0625 0.5625 C-190.670625 -0.283125 -190.27875 -1.12875 -189.875 -2 C-188.885 -2.33 -187.895 -2.66 -186.875 -3 C-186.73513672 -3.28552734 -186.73513672 -3.28552734 -186.02734375 -4.73046875 C-184.42967269 -7.87706836 -182.02054804 -9.97871833 -179.4375 -12.3125 C-179.16820679 -12.55605225 -179.16820679 -12.55605225 -177.80541992 -13.78857422 C-172.84524418 -18.17773691 -167.64373376 -21.73687787 -161.875 -25 C-161.56498047 -25.17917969 -161.56498047 -25.17917969 -159.99609375 -26.0859375 C-105.07929842 -57.61812442 -45.85942952 -36.74135851 0 0 Z M65.125 98 C66.125 101 66.125 101 66.125 101 Z M66.125 101 C67.56905824 105.35494568 69.01836024 109.70732862 70.51953125 114.04296875 C76.27400264 130.76255819 80.88234093 147.50591435 83.9375 164.9375 C84.04098755 165.52325806 84.04098755 165.52325806 84.56469727 168.48754883 C87.12218114 183.82491425 87.33267347 199.12091255 87.3125 214.625 C87.31156342 215.55641815 87.31062683 216.4878363 87.30966187 217.44747925 C87.23233129 252.91478689 81.61676367 287.35750249 67.125 320 C66.96112793 320.37680908 66.96112793 320.37680908 66.13183594 322.28369141 C56.97455281 343.15117203 44.78980391 367.02956292 28.125 383 C27.03346122 384.24284118 25.95065854 385.49338955 24.875 386.75 C21.88313742 390.20754695 18.73228225 393.41509589 15.41015625 396.5546875 C14.125 398 14.125 398 14.125 400 C13.54878906 400.24621094 12.97257813 400.49242187 12.37890625 400.74609375 C9.7625847 402.20162099 8.11608164 403.88608731 6.0625 406.0625 C-2.09822776 414.39686026 -11.38197722 421.26657687 -20.875 428 C-21.720625 428.6084375 -22.56625 429.216875 -23.4375 429.84375 C-29.08870109 433.87023078 -34.88267188 437.506637 -40.875 441 C-41.81988281 441.58265625 -42.76476562 442.1653125 -43.73828125 442.765625 C-68.07740916 457.38693261 -95.65181592 466.40810267 -122.875 474 C-127.54749076 475.31398481 -132.21503247 476.64223968 -136.875 478 C-137.86757813 478.28230469 -138.86015625 478.56460937 -139.8828125 478.85546875 C-152.97036877 482.85153593 -164.32577229 489.13021518 -173.875 499 C-174.60460937 499.74378906 -175.33421875 500.48757813 -176.0859375 501.25390625 C-186.72892843 512.62885009 -192.28308768 527.65288263 -192.09765625 543.30859375 C-190.58686784 561.57057991 -182.82418564 578.57369752 -168.89453125 590.67578125 C-149.06469559 606.99290317 -126.05542916 611.63498897 -100.875 610 C-68.55658323 606.31559955 -40.58306812 589.8962488 -14.875 571 C-14.46701172 570.70544922 -14.46701172 570.70544922 -12.40234375 569.21484375 C-8.54350439 566.39464526 -5.25334216 563.39818558 -1.875 560 C-0.41141391 558.64777372 1.0525651 557.29591845 2.52636719 555.95483398 C13.53657339 545.93500827 23.88737535 535.70214018 33.125 524 C34.54097783 522.31192196 35.95766405 520.6244379 37.375 518.9375 C60.53258429 490.42047479 79.20177436 457.35967411 92.125 423 C92.61445106 421.74943767 93.10537957 420.49945274 93.59765625 419.25 C97.16117058 410.12085551 99.96460165 400.92541277 102.46435547 391.45410156 C103.15862589 388.87508962 103.88991245 386.30872471 104.62890625 383.7421875 C128.46010877 300.4152584 118.83566673 209.37683999 70.55859375 106.25 C70.13634521 105.45078125 69.71409668 104.6515625 69.27905273 103.828125 C68.125 102 68.125 102 66.125 101 Z M-29.875 114 C-30.80533352 116.79100056 -31.08842996 118.83986143 -31.26391602 121.74682617 C-31.29390938 122.22721092 -31.29390938 122.22721092 -31.44569397 124.6582489 C-31.50615402 125.69270645 -31.56661407 126.727164 -31.62890625 127.79296875 C-31.69407944 128.85413406 -31.75925262 129.91529938 -31.82640076 131.00862122 C-32.03389541 134.40136241 -32.2357618 137.79441213 -32.4375 141.1875 C-32.57710369 143.48635064 -32.71707307 145.7851791 -32.85742188 148.08398438 C-33.20085991 153.7224057 -33.53967633 159.36109061 -33.875 165 C-36.41515621 165.63885976 -38.95555268 166.27673651 -41.49609375 166.9140625 C-41.85225769 167.00369263 -41.85225769 167.00369263 -43.65466309 167.45727539 C-47.73862257 168.48090045 -51.82896685 169.45361337 -55.9375 170.375 C-70.92800492 174.17368381 -84.64958706 180.2286647 -92.875 194 C-93.7581127 196.16788207 -94.58978523 198.3572702 -95.375 200.5625 C-98.95596542 210.39013354 -103.68751259 214.96213643 -113.12890625 219.49755859 C-118.25897589 221.83902305 -123.51626755 223.80906945 -128.81738281 225.72436523 C-137.82854 229.00781384 -146.72703357 232.92094748 -154.875 238 C-154.545 239.65 -154.215 241.3 -153.875 243 C-152.885 243.33 -151.895 243.66 -150.875 244 C-150.545 243.67 -150.545 243.67 -148.875 242 C-147.885 242 -146.895 242 -145.875 242 C-145.61782161 248.42945964 -145.61782161 248.42945964 -147.14453125 251.81640625 C-147.875 255 -147.875 255 -146.20703125 258.39453125 C-145.38834759 259.54915296 -144.54757827 260.68837385 -143.6875 261.8125 C-143.48092773 262.10479492 -143.48092773 262.10479492 -142.43554688 263.58398438 C-140.36155673 266.42953842 -139.2834342 267.86385527 -135.875 269 C-135.545 269.99 -135.215 270.98 -134.875 272 C-123.26843339 280.98663774 -109.54331786 281.71739863 -95.66650391 280.13476562 C-82.6370498 278.69504694 -69.72632993 277.90604818 -58.7265625 286.3515625 C-48.95346056 295.0525098 -43.71471699 306.52377182 -42.67236328 319.52807617 C-41.64587765 345.83113218 -49.63489258 368.24646917 -66.5 388.5 C-71.47079871 394.62242584 -74.56909649 401.89363895 -77.875 409 C-78.30039062 409.8765625 -78.72578125 410.753125 -79.1640625 411.65625 C-84.34093355 423.19553509 -85.46111169 436.51799189 -84.875 449 C-79.51108254 448.07475826 -74.99027104 445.99088484 -70.0625 443.75 C-69.19818359 443.36714844 -68.33386719 442.98429687 -67.44335938 442.58984375 C-62.62093712 440.4133845 -58.12214122 438.03383274 -53.68286133 435.15673828 C-51.07238223 433.4864547 -48.34661992 432.04297918 -45.625 430.5625 C-29.90886743 421.76120284 -14.54831887 410.81961981 -1.875 398 C-0.62889717 396.7747253 0.61861511 395.55088309 1.8671875 394.328125 C15.2047592 381.19562347 15.2047592 381.19562347 19.86328125 374.69921875 C21.125 373 21.125 373 22.53857422 371.60546875 C40.48196781 353.44668816 52.18158415 327.47371714 61.125 304 C61.42293457 303.23816406 61.72086914 302.47632813 62.02783203 301.69140625 C66.67159837 289.8095598 66.67159837 289.8095598 66.125 284 C65.09375 281.7890625 65.09375 281.7890625 63.625 279.625 C60.98006048 275.46338187 58.62590708 271.22815505 56.4375 266.8125 C56.10814453 266.14814941 55.77878906 265.48379883 55.43945312 264.79931641 C52.45008735 258.72419875 49.54052212 252.61078624 46.625 246.5 C45.22086393 243.56349079 43.81615787 240.6272565 42.41064453 237.69140625 C41.60899848 236.01321672 40.81002525 234.33374457 40.01513672 232.65234375 C34.44079423 220.87864864 27.89015956 210.14229936 19.92578125 199.8203125 C19.65652832 199.47000977 19.65652832 199.47000977 18.29394531 197.69726562 C17.25772508 196.36057302 16.20966641 195.03293479 15.14746094 193.71679688 C11.5238989 189.07494343 9.68989799 184.65126193 8.125 179 C7.7343803 177.68060182 7.34250734 176.36157385 6.94921875 175.04296875 C6.76480225 174.41205322 6.58038574 173.7811377 6.39038086 173.13110352 C2.22082354 159.10751001 -4.69466622 148.01426009 -13.23876953 136.26708984 C-14.91918515 133.93877897 -16.57084079 131.5924242 -18.21484375 129.23828125 C-18.7547998 128.46572998 -19.29475586 127.69317871 -19.85107422 126.8972168 C-20.88664855 125.4139773 -21.92088987 123.92980597 -22.95361328 122.44458008 C-23.42395996 121.77450928 -23.89430664 121.10443848 -24.37890625 120.4140625 C-24.78955322 119.8257666 -25.2002002 119.2374707 -25.62329102 118.63134766 C-26.92312173 116.93728313 -28.334016 115.47520176 -29.875 114 Z M-65.875 126 C-66.17679444 138.79273087 -65.28281517 151.28660534 -63.875 164 C-63.54342896 163.93361328 -63.54342896 163.93361328 -61.86547852 163.59765625 C-60.98303467 163.42105469 -60.10059082 163.24445313 -59.19140625 163.0625 C-58.27762207 162.87945312 -57.36383789 162.69640625 -56.42236328 162.5078125 C-54.60430834 162.14538637 -52.78498242 161.78931204 -50.96484375 161.4375 C-50.25457031 161.293125 -49.54429687 161.14875 -48.8125 161 C-48.07902344 160.855625 -47.34554687 160.71125 -46.58984375 160.5625 C-46.02394531 160.376875 -45.45804688 160.19125 -44.875 160 C-44.545 159.34 -44.215 158.68 -43.875 158 C-48.76073029 146.59314853 -56.74172305 135.33558746 -64.875 126 C-65.205 126 -65.535 126 -65.875 126 Z M-224.875 236 C-233.01876367 250.31320837 -240.15867053 264.52054274 -245.875 280 C-246.33261719 281.19238281 -246.79023437 282.38476562 -247.26171875 283.61328125 C-249.71765595 290.16479282 -251.51292825 295.99994617 -251.875 303 C-249.29689088 300.02525871 -247.21738155 296.95511535 -245.25 293.5625 C-242.25211196 288.45612292 -238.87797225 283.68796058 -235.39013672 278.91040039 C-225.44651787 265.2501055 -223.64907049 252.46775088 -223.875 236 C-224.205 236 -224.535 236 -224.875 236 Z " fill="#B6975D" transform="translate(802.875,156)"/>
<path d="M0 0 C0.24709717 0.21954346 0.24709717 0.21954346 1.49755859 1.33056641 C2.39861328 2.13107422 3.29966797 2.93158203 4.22802734 3.75634766 C15.54970193 14.48122079 23.06330487 27.26994569 29.49755859 41.33056641 C29.90748047 42.18908203 30.31740234 43.04759766 30.73974609 43.93212891 C31.8197051 46.3683155 32.68313436 48.79276233 33.49755859 51.33056641 C33.86880859 52.45720703 34.24005859 53.58384766 34.62255859 54.74462891 C42.69864931 82.50554391 38.64893211 114.92044653 25.49755859 140.33056641 C25.17835449 140.95624512 24.85915039 141.58192383 24.53027344 142.2265625 C19.53572464 151.79924236 13.18187648 159.40492086 5.63427734 167.08837891 C-2.25083511 175.11643099 -2.25083511 175.11643099 -2.81494141 180.08056641 C-2.32751968 185.14975232 0.22250852 188.25018047 4.05615234 191.49853516 C5.00619141 192.16498047 5.95623047 192.83142578 6.93505859 193.51806641 C44.45660068 220.80646065 68.6429724 257.92288367 81.49755859 302.33056641 C81.70767578 303.04132324 81.91779297 303.75208008 82.13427734 304.484375 C94.12530358 345.44463053 92.80263447 388.14085689 92.73639755 430.38494899 C92.72579541 437.32983629 92.72607095 444.27471251 92.72655336 451.21960635 C92.72704962 463.59832042 92.71800179 475.97700826 92.70336914 488.35571289 C92.68919519 500.35278804 92.68220272 512.3498402 92.68286133 524.34692383 C92.68290128 525.09067416 92.68294124 525.83442449 92.68298241 526.60071271 C92.68302276 527.34322782 92.68306312 528.08574293 92.68310469 528.85075849 C92.68379321 542.57170993 92.6779246 556.2926517 92.66895148 570.0136 C92.66593592 574.85358437 92.66487214 579.69356697 92.66441917 584.53355217 C92.66366843 591.01893845 92.65735205 597.50430364 92.64725304 603.98968315 C92.64432009 606.37426099 92.64310426 608.7588416 92.64368057 611.14342117 C92.64416738 614.3818901 92.63855488 617.62029003 92.63127136 620.85874939 C92.63281996 621.81452769 92.63436857 622.77030599 92.6359641 623.75504726 C92.61174028 630.21638472 92.61174028 630.21638472 91.49755859 631.33056641 C85.76144748 631.60371455 85.76144748 631.60371455 83.49755859 631.33056641 C80.79755434 628.63056215 81.25395999 626.53371003 81.23187125 622.86544979 C81.23653446 621.94836179 81.24119767 621.0312738 81.2460022 620.08639526 C81.24451713 619.60115908 81.24451713 619.60115908 81.23700178 617.14556992 C81.22932375 613.87237834 81.23587157 610.5993642 81.2421875 607.32617188 C81.23943919 604.98733396 81.23576027 602.64849698 81.23121643 600.30966187 C81.22308487 595.2601381 81.22094099 590.21065868 81.2231636 585.161129 C81.22575262 577.84288507 81.21462327 570.52470853 81.19861381 563.20648624 C81.17262279 551.31084151 81.15262315 539.41519672 81.13916016 527.51953125 C81.13834979 526.80711167 81.13753942 526.0946921 81.13670449 525.36068405 C81.1255124 515.2780498 81.12020899 505.19542105 81.11731736 495.11278142 C81.11721537 494.75869397 81.11721537 494.75869397 81.11669922 492.96679688 C81.11649928 492.25948983 81.11629935 491.55218279 81.11609335 490.82344221 C81.11234832 478.98977004 81.09317424 467.15618127 81.06160486 455.32255089 C81.04110102 447.38720571 81.03899408 439.45207808 81.04988503 431.51671386 C81.05250542 426.55776341 81.03842213 421.59896087 81.019804 416.64004898 C81.01451268 414.35371695 81.01592587 412.06735715 81.0248394 409.78103638 C81.11838079 383.66311715 75.35528589 359.57177778 56.54833984 340.23681641 C41.84291092 325.81650753 41.84291092 325.81650753 33.06005859 325.01806641 C24.23973711 325.2644441 15.6406904 327.91360685 7.71630859 331.65869141 C4.92762311 332.5031525 3.2574437 332.19533041 0.49755859 331.33056641 C-0.16244141 330.67056641 -0.82244141 330.01056641 -1.50244141 329.33056641 C-1.12744141 325.70556641 -1.12744141 325.70556641 -0.50244141 322.33056641 C0.06925781 322.11980469 0.06925781 322.11980469 2.96240234 321.05322266 C4.45334119 320.4999812 5.94422371 319.94658794 7.43505859 319.39306641 C8.18980469 319.11527344 8.94455078 318.83748047 9.72216797 318.55126953 C15.38427734 316.44384766 15.38427734 316.44384766 16.49755859 315.33056641 C6.94720604 311.37207018 6.94720604 311.37207018 2.49755859 310.20556641 C-0.50244141 309.33056641 -0.50244141 309.33056641 -2.50244141 307.33056641 C-2.81494141 304.33056641 -2.81494141 304.33056641 -2.50244141 301.33056641 C0.9733439 299.0133762 2.68663406 299.16227261 6.72802734 299.73681641 C31.07061045 304.95553662 55.6634682 321.66622797 71.49755859 340.33056641 C68.75501949 331.65187358 64.81456905 323.91856259 60.41552734 315.99902344 C59.65088661 314.60924822 58.914344 313.20405965 58.18505859 311.79541016 C54.68848563 305.10578618 50.10293968 299.28813193 45.49755859 293.33056641 C44.88525391 292.49912109 44.27294922 291.66767578 43.64208984 290.81103516 C39.75425134 285.58869831 35.50982447 281.46296707 30.49755859 277.33056641 C30.18625 277.05083984 30.18625 277.05083984 28.61083984 275.63525391 C28.01658203 275.10158203 27.42232422 274.56791016 26.81005859 274.01806641 C26.29056641 273.54755859 25.77107422 273.07705078 25.23583984 272.59228516 C20.23208418 268.96034565 14.15861274 268.46950168 8.20458984 267.56298828 C5.26799281 267.06623682 2.93971304 266.64774542 0.49365234 264.89306641 C-0.50244141 263.33056641 -0.50244141 263.33056641 -0.31494141 260.76806641 C0.49755859 258.33056641 0.49755859 258.33056641 2.49755859 256.33056641 C4.66162109 256.35400391 4.66162109 256.35400391 7.12255859 256.70556641 C7.93982422 256.81642578 8.75708984 256.92728516 9.59912109 257.04150391 C10.22560547 257.13689453 10.85208984 257.23228516 11.49755859 257.33056641 C10.96646484 256.36376953 10.43537109 255.39697266 9.88818359 254.40087891 C-1.32948253 233.80555146 -1.32948253 233.80555146 -1.50244141 225.33056641 C-0.50244141 223.33056641 -0.50244141 223.33056641 1.49755859 222.33056641 C3.83760029 222.61298523 6.17260582 222.94307428 8.49755859 223.33056641 C8.68511719 223.85585938 8.68511719 223.85585938 9.63427734 226.51416016 C15.31968937 242.21218329 22.53928696 253.5668847 34.49755859 265.33056641 C34.67229199 261.22337144 34.79839602 257.11765132 34.88208008 253.00756836 C34.91700499 251.61362981 34.96456692 250.2199424 35.02563477 248.8269043 C35.58221466 235.79170964 35.58221466 235.79170964 31.21630859 230.08056641 C28.21823448 226.81520963 24.90323914 223.88272852 21.49365234 221.05322266 C19.54676263 219.37303016 17.86300603 217.59598437 16.12255859 215.70556641 C11.34730765 210.79660844 5.68431744 207.05512822 0.01953125 203.25 C-6.82802601 198.51728051 -12.7466341 192.75844146 -14.50244141 184.33056641 C-15.22719502 176.96223802 -13.50063623 171.32285765 -9.02978516 165.36962891 C-7.24182368 163.29846786 -5.39183055 161.30975541 -3.50244141 159.33056641 C3.06236133 152.41747028 8.76880845 145.63323053 13.49755859 137.33056641 C13.7225 136.93675781 13.7225 136.93675781 14.86083984 134.94384766 C27.92062509 110.48202081 29.65001647 82.95949293 22.46630859 56.53759766 C17.83111567 41.42624235 10.10785815 26.75870166 -1.27197266 15.61962891 C-3.50244141 13.33056641 -3.50244141 13.33056641 -3.50244141 11.33056641 C-4.06447266 11.08564453 -4.62650391 10.84072266 -5.20556641 10.58837891 C-7.91972826 9.10205218 -9.94206989 7.26481058 -12.25244141 5.20556641 C-35.06968535 -13.62243754 -65.666437 -17.77689543 -94.25244141 -15.10693359 C-119.73644553 -11.50593301 -144.50313022 1.44315953 -163.09619141 19.06494141 C-165.13491396 20.98451783 -167.21274244 22.81348532 -169.33447266 24.63916016 C-181.3693831 35.13924842 -191.15804072 47.32915536 -200.18945312 60.44042969 C-201.24729081 61.96325962 -202.34023402 63.46167072 -203.44384766 64.95166016 C-220.79917056 88.41271112 -232.87924606 116.61315279 -241.50244141 144.33056641 C-241.6060498 144.65806885 -241.6060498 144.65806885 -242.13037109 146.31542969 C-260.28806599 203.98877375 -260.56586587 275.88882573 -232.45776367 330.5144043 C-232.14250732 331.11373779 -231.82725098 331.71307129 -231.50244141 332.33056641 C-231.11056641 331.91806641 -231.11056641 331.91806641 -229.12744141 329.83056641 C-226.50244141 327.33056641 -226.50244141 327.33056641 -224.50244141 327.33056641 C-223.84244141 326.01056641 -223.18244141 324.69056641 -222.50244141 323.33056641 C-221.84244141 323.33056641 -221.18244141 323.33056641 -220.50244141 323.33056641 C-220.24978516 322.75693359 -219.99712891 322.18330078 -219.73681641 321.59228516 C-218.35190963 319.05475028 -216.73089385 317.24804778 -214.75244141 315.14306641 C-203.93067441 303.16671667 -198.57344456 289.3913443 -193.50244141 274.33056641 C-193.04023702 272.97117944 -192.57799861 271.61180404 -192.11572266 270.25244141 C-190.29549927 264.86781015 -188.52183119 259.47813758 -186.93994141 254.01806641 C-184.10086205 244.49695499 -180.2143949 235.51863767 -174.50244141 227.33056641 C-173.84244141 227.33056641 -173.18244141 227.33056641 -172.50244141 227.33056641 C-172.44958984 226.79818359 -172.39673828 226.26580078 -172.34228516 225.71728516 C-171.09516802 222.17315226 -168.61083451 219.81562863 -166.06494141 217.14306641 C-165.52869141 216.57297852 -164.99244141 216.00289062 -164.43994141 215.41552734 C-150.88366689 201.16221034 -150.88366689 201.16221034 -145.50244141 200.33056641 C-145.39802734 199.61513672 -145.29361328 198.89970703 -145.18603516 198.16259766 C-144.42721874 195.01892964 -143.23750435 192.77840867 -141.56494141 190.01806641 C-141.04029297 189.13505859 -140.51564453 188.25205078 -139.97509766 187.34228516 C-139.48912109 186.67841797 -139.00314453 186.01455078 -138.50244141 185.33056641 C-137.84244141 185.33056641 -137.18244141 185.33056641 -136.50244141 185.33056641 C-136.30521484 184.65509766 -136.10798828 183.97962891 -135.90478516 183.28369141 C-133.96646862 179.20188835 -131.16368156 176.33202667 -128.06494141 173.08056641 C-127.43749023 172.41669922 -126.81003906 171.75283203 -126.16357422 171.06884766 C-120.9589298 165.6448099 -115.54158724 160.8233249 -109.50244141 156.33056641 C-108.67228516 155.70794922 -107.84212891 155.08533203 -106.98681641 154.44384766 C-88.89560843 141.33056641 -88.89560843 141.33056641 -78.50244141 141.33056641 C-79.06626365 148.32422129 -80.12604539 155.09157483 -81.56494141 161.95556641 C-81.75121094 162.86435547 -81.93748047 163.77314453 -82.12939453 164.70947266 C-82.58261436 166.9174667 -83.04033834 169.12441765 -83.50244141 171.33056641 C-83.06673828 170.87166016 -82.63103516 170.41275391 -82.18212891 169.93994141 C-76.61911279 164.20834904 -70.54028124 160.23348292 -63.62744141 156.26806641 C-63.01755371 155.91808594 -62.40766602 155.56810547 -61.77929688 155.20751953 C-57.44885646 152.76582709 -53.22899914 150.84306488 -48.50244141 149.33056641 C-46.9490049 153.70843291 -48.06057213 156.51683465 -49.59033203 160.6652832 C-50.49268656 163.30206167 -51.19425909 165.91553334 -51.85009766 168.62353516 C-53.05216155 173.51840232 -54.28403098 178.40387081 -55.54541016 183.28369141 C-55.72047089 183.9616124 -55.89553162 184.63953339 -56.07589722 185.33799744 C-56.61352395 187.41895426 -57.15171931 189.4997635 -57.68994141 191.58056641 C-58.06172915 193.01935739 -58.4334742 194.45815941 -58.80517578 195.89697266 C-59.7037737 199.37496417 -60.6029438 202.85280745 -61.50244141 206.33056641 C-60.89432617 206.62697021 -60.28621094 206.92337402 -59.65966797 207.22875977 C-49.05924001 212.64294394 -38.42632148 221.78861672 -34.50244141 233.33056641 C-33.09360344 238.85347581 -31.90902684 244.42223589 -31.11962891 250.06884766 C-29.66860103 259.74751229 -24.18442556 267.35194901 -16.98291016 273.79541016 C-14.22168083 276.6586374 -13.54015884 279.01805053 -13.06494141 282.95556641 C-13.16805858 287.57005971 -15.03470951 290.96735018 -17.21728516 294.95556641 C-18.50244141 297.33056641 -18.50244141 297.33056641 -19.87744141 300.89306641 C-24.84275079 311.39660549 -33.55860583 319.82672412 -44.50244141 323.83056641 C-50.83145383 325.66776055 -56.52948386 325.87093776 -63.02978516 324.98681641 C-69.1877528 324.15183774 -73.89852512 324.43428492 -79.50244141 327.33056641 C-82.37744141 329.76806641 -82.37744141 329.76806641 -84.50244141 332.33056641 C-84.78087891 332.61931641 -84.78087891 332.61931641 -86.18994141 334.08056641 C-91.54983451 343.26895458 -90.08280402 355.14038694 -87.60009766 364.96728516 C-81.08928162 384.91679621 -64.9643734 398.6891966 -48.92822266 411.10400391 C-42.75734593 415.88626943 -36.82990224 420.59330089 -31.50244141 426.33056641 C-30.67744141 427.15556641 -29.85244141 427.98056641 -29.00244141 428.83056641 C-28.17744141 429.65556641 -27.35244141 430.48056641 -26.50244141 431.33056641 C-26.01517578 431.77142578 -25.52791016 432.21228516 -25.02587891 432.66650391 C-4.84254068 451.51066329 10.4978644 482.67034676 11.93505859 510.39306641 C12.2199118 514.85797486 13.29196092 517.00025358 16.09521484 520.40478516 C25.72973922 533.63548298 26.24429809 553.01167779 24.19287109 568.65380859 C21.52078244 583.79337209 14.19608731 595.72361753 4.49755859 607.33056641 C3.94583984 607.99830078 3.39412109 608.66603516 2.82568359 609.35400391 C-11.36834176 624.93816577 -34.87916586 634.32442299 -55.50439453 635.50195312 C-89.93073438 636.93553367 -121.73070891 627.15221971 -150.50244141 608.33056641 C-151.69350672 607.57351933 -152.88492491 606.8170272 -154.07666016 606.06103516 C-166.7469317 597.92359784 -178.30627801 588.43163835 -189.39306641 578.25634766 C-191.33283602 576.48540984 -193.30796495 574.77448884 -195.31494141 573.08056641 C-198.20047294 570.61897552 -200.93743371 568.12875662 -203.50244141 565.33056641 C-203.50244141 564.67056641 -203.50244141 564.01056641 -203.50244141 563.33056641 C-204.16244141 563.33056641 -204.82244141 563.33056641 -205.50244141 563.33056641 C-205.50244141 562.67056641 -205.50244141 562.01056641 -205.50244141 561.33056641 C-206.16244141 561.33056641 -206.82244141 561.33056641 -207.50244141 561.33056641 C-208.91682547 559.75769957 -210.25848542 558.11916645 -211.56494141 556.45556641 C-214.62146381 552.62511686 -217.73546535 548.92593812 -221.06494141 545.33056641 C-225.65161633 540.27731593 -229.5797005 534.90680833 -233.50244141 529.33056641 C-234.41639631 528.07172923 -235.33185577 526.81398351 -236.24853516 525.55712891 C-248.22679558 509.02550896 -258.2420099 491.50282244 -267.50244141 473.33056641 C-267.77056641 472.80849609 -267.77056641 472.80849609 -269.12744141 470.16650391 C-271.12542071 466.23000898 -272.96847059 462.27642729 -274.69213867 458.21044922 C-275.48617393 456.36830657 -276.32207249 454.54438923 -277.15869141 452.72119141 C-287.31022607 430.19860096 -294.63541071 405.52967124 -299.50244141 381.33056641 C-299.60919189 380.8051123 -299.60919189 380.8051123 -300.14941406 378.14599609 C-302.8468913 364.69129494 -305.21555718 351.26950186 -306.3137207 337.58251953 C-306.44491305 336.01703678 -306.59631024 334.45316943 -306.76342773 332.89111328 C-307.79985283 322.51763329 -307.70148656 312.11951327 -307.68994141 301.70556641 C-307.68933716 300.70434753 -307.68873291 299.70312866 -307.68811035 298.67156982 C-307.64953747 275.13129331 -306.08554479 252.45984749 -301.50244141 229.33056641 C-301.34517578 228.51040039 -301.18791016 227.69023437 -301.02587891 226.84521484 C-295.48716483 198.0368609 -286.45181051 170.11188356 -274.50244141 143.33056641 C-274.22754883 142.7024707 -273.95265625 142.074375 -273.66943359 141.42724609 C-262.55336167 116.08694538 -247.72290371 92.6697193 -231.50244141 70.33056641 C-231.05143066 69.70375977 -230.60041992 69.07695312 -230.13574219 68.43115234 C-228.89098887 66.7040975 -227.63673808 64.9845352 -226.37744141 63.26806641 C-225.67361328 62.30771484 -224.96978516 61.34736328 -224.24462891 60.35791016 C-223.66970703 59.68888672 -223.09478516 59.01986328 -222.50244141 58.33056641 C-221.84244141 58.33056641 -221.18244141 58.33056641 -220.50244141 58.33056641 C-220.28330078 57.80462891 -220.06416016 57.27869141 -219.83837891 56.73681641 C-217.9996441 53.42494318 -215.6029259 50.67475622 -213.12744141 47.83056641 C-212.84843994 47.50983154 -212.84843994 47.50983154 -211.43652344 45.88671875 C-187.8961557 19.25970927 -187.8961557 19.25970927 -174.50244141 10.33056641 C-173.84244141 10.33056641 -173.18244141 10.33056641 -172.50244141 10.33056641 C-172.50244141 9.67056641 -172.50244141 9.01056641 -172.50244141 8.33056641 C-170.10438231 6.41764602 -167.70502696 4.64169943 -165.18994141 2.89306641 C-164.42810547 2.36173096 -163.66626953 1.83039551 -162.88134766 1.28295898 C-113.64124876 -32.54454788 -47.94605873 -41.8581417 0 0 Z M-245.50244141 114.33056641 C-256.4585837 132.39053 -265.62242064 151.13711793 -272.68847656 171.05639648 C-273.326651 172.83941834 -273.98065416 174.61677612 -274.640625 176.3918457 C-277.78531777 184.95400289 -280.33389786 193.5679097 -282.62744141 202.39306641 C-282.96130859 203.65183594 -283.29517578 204.91060547 -283.63916016 206.20751953 C-301.93323195 275.68912163 -300.11289252 351.25449849 -276.50244141 419.33056641 C-276.33333252 419.81887939 -276.33333252 419.81887939 -275.47753906 422.29003906 C-274.30936035 425.64088059 -273.12780535 428.98665466 -271.93994141 432.33056641 C-271.56369629 433.39428467 -271.18745117 434.45800293 -270.79980469 435.55395508 C-268.9372887 440.71976281 -266.96269207 445.6776353 -264.41845703 450.54492188 C-262.9524913 453.40261733 -261.75679416 456.37501768 -260.50244141 459.33056641 C-250.73461856 481.04209515 -238.79163139 500.83219223 -224.97509766 520.18212891 C-223.50244141 522.33056641 -223.50244141 522.33056641 -221.93603516 525.10400391 C-221.46294922 525.83876953 -220.98986328 526.57353516 -220.50244141 527.33056641 C-219.84244141 527.33056641 -219.18244141 527.33056641 -218.50244141 527.33056641 C-218.25365234 527.88744141 -218.00486328 528.44431641 -217.74853516 529.01806641 C-211.71311231 540.21860033 -200.45403653 550.46969691 -191.50244141 559.33056641 C-186.50244141 564.33056641 -186.50244141 564.33056641 -184.67822266 566.26025391 C-178.68697057 572.48406846 -172.15717614 577.72215938 -165.30761719 582.94873047 C-163.5395953 584.30212564 -161.78320507 585.66926223 -160.02978516 587.04150391 C-150.76963074 594.27352478 -141.6487873 600.46370508 -131.04541016 605.60400391 C-128.82592897 606.68560334 -126.61789353 607.7913855 -124.42822266 608.93212891 C-113.31928893 614.71648692 -101.73137431 618.67277069 -89.50244141 621.33056641 C-88.80199707 621.49975586 -88.10155273 621.66894531 -87.37988281 621.84326172 C-70.99006309 625.54579121 -52.35933649 624.95958021 -36.50244141 619.33056641 C-35.96748047 619.14365234 -35.96748047 619.14365234 -33.26025391 618.19775391 C-11.63990327 609.89069807 1.27531368 594.87440664 10.49755859 574.33056641 C15.3551754 563.30203573 14.43312678 546.04349625 10.34619141 534.89086914 C7.38563439 527.99321553 3.74523479 521.72846234 -1.50244141 516.33056641 C-2.34291016 515.43982422 -3.18337891 514.54908203 -4.04931641 513.63134766 C-15.61257251 501.92578072 -29.89593856 496.68754558 -45.50244141 492.33056641 C-58.58219509 488.65897014 -71.51219068 484.76427591 -84.31494141 480.20556641 C-84.88970215 480.00177368 -84.88970215 480.00177368 -87.79833984 478.97045898 C-94.87103732 476.41436673 -101.69808159 473.52721076 -108.50244141 470.33056641 C-110.08121187 469.61557308 -111.66061567 468.90197619 -113.24072266 468.18994141 C-122.10826874 464.12652218 -130.41488994 459.7599692 -138.50634766 454.31103516 C-140.98533245 452.67238419 -143.42892911 451.25158992 -146.06494141 449.89306641 C-152.3928953 446.48751952 -157.88515267 441.77377852 -163.50244141 437.33056641 C-164.98110534 436.20490571 -166.46021391 435.07982864 -167.93994141 433.95556641 C-171.97083373 430.81461135 -175.86641036 427.52262728 -179.75244141 424.20556641 C-180.343396 423.70234863 -180.93435059 423.19913086 -181.54321289 422.68066406 C-193.42562638 412.46498401 -204.04333259 400.59544332 -213.30078125 387.96923828 C-214.52056944 386.30584569 -215.75557347 384.65444742 -216.99072266 383.00244141 C-236.80762759 356.19201471 -251.42126072 324.66777181 -259.04541016 292.26513672 C-259.45739498 290.5212437 -259.88520554 288.78110773 -260.31494141 287.04150391 C-267.41820351 256.63066303 -267.77991678 225.23247708 -264.50244141 194.33056641 C-264.45684082 193.89454102 -264.45684082 193.89454102 -264.22607422 191.68798828 C-261.47485484 166.68567883 -255.27154343 141.12665568 -245.06884766 118.08056641 C-244.50244141 116.33056641 -244.50244141 116.33056641 -245.50244141 114.33056641 Z M-112.50244141 170.33056641 C-113.21400391 170.90548828 -113.92556641 171.48041016 -114.65869141 172.07275391 C-123.6062828 179.49357375 -131.04904936 189.19694066 -136.62744141 199.38525391 C-139.51767981 204.54352661 -143.0173376 207.51439326 -147.68994141 211.08837891 C-157.65570938 219.0333106 -165.35971055 228.15797607 -171.50244141 239.33056641 C-171.73882324 239.75768921 -171.73882324 239.75768921 -172.93505859 241.91918945 C-177.06503346 249.73832119 -179.62584135 257.64805411 -182.00244141 266.14306641 C-184.97794627 276.4579611 -188.05023268 286.54327471 -192.50244141 296.33056641 C-192.72480469 296.84103516 -192.72480469 296.84103516 -193.85009766 299.42431641 C-200.42975966 313.64664988 -211.70149923 326.87218166 -223.77587891 336.76025391 C-225.6428335 338.45825333 -227.05028059 340.27259617 -228.50244141 342.33056641 C-228.06673828 343.06919922 -227.63103516 343.80783203 -227.18212891 344.56884766 C-224.2848879 349.5041911 -221.43689897 354.43068606 -218.81494141 359.51806641 C-210.41310755 374.98457223 -198.92998264 388.94587876 -186.50244141 401.33056641 C-185.90431641 402.11431641 -185.30619141 402.89806641 -184.68994141 403.70556641 C-182.23267304 406.65428845 -179.52875031 409.01813107 -176.60009766 411.48681641 C-175.03795415 412.85987364 -173.53440594 414.30015321 -172.06494141 415.77197266 C-152.04311514 435.76327784 -126.00057228 450.50715402 -100.50244141 462.33056641 C-100.20241211 462.47115479 -100.20241211 462.47115479 -98.68408203 463.18261719 C-83.57455232 470.14223176 -67.38656121 474.51290683 -51.50244141 479.33056641 C-47.82724546 480.44640987 -44.15239305 481.56334554 -40.47875977 482.68432617 C-38.32085645 483.34189954 -36.16160791 483.99508267 -34.00073242 484.64282227 C-25.18298615 487.32066436 -16.79146848 490.05451086 -9.18994141 495.39306641 C-5.68528332 497.83088598 -2.18885377 500.17512311 1.49755859 502.33056641 C0.7021265 480.45618388 -13.15371179 459.73995316 -26.50244141 443.33056641 C-27.03949707 442.66573242 -27.57655273 442.00089844 -28.12988281 441.31591797 C-28.66145996 440.67364258 -29.19303711 440.03136719 -29.74072266 439.36962891 C-30.2219458 438.78648926 -30.70316895 438.20334961 -31.19897461 437.60253906 C-32.50244141 436.33056641 -32.50244141 436.33056641 -34.50244141 436.33056641 C-34.74994141 435.71181641 -34.99744141 435.09306641 -35.25244141 434.45556641 C-36.73014903 431.94346345 -37.94199317 431.56949297 -40.50244141 430.33056641 C-40.83244141 429.34056641 -41.16244141 428.35056641 -41.50244141 427.33056641 C-43.55118825 425.57788124 -45.59984387 423.94572696 -47.75244141 422.33056641 C-49.03265088 421.34822582 -50.31125916 420.36379553 -51.58837891 419.37744141 C-52.24032227 418.8740625 -52.89226562 418.37068359 -53.56396484 417.85205078 C-58.67606012 413.83963545 -63.57306737 409.56332635 -68.50244141 405.33056641 C-69.26427734 404.69376953 -70.02611328 404.05697266 -70.81103516 403.40087891 C-77.50879933 397.73454431 -84.12304983 391.56783338 -87.50244141 383.33056641 C-88.16244141 383.33056641 -88.82244141 383.33056641 -89.50244141 383.33056641 C-89.74994141 382.54681641 -89.99744141 381.76306641 -90.25244141 380.95556641 C-91.53521546 377.23552165 -92.99074768 373.62233062 -94.50244141 369.99072266 C-98.83416856 358.46765158 -99.8659813 344.10685815 -94.75634766 332.62353516 C-90.77301867 325.33937904 -86.53083834 320.17351242 -78.50244141 317.33056641 C-72.7049833 316.69463432 -66.90373035 316.85277344 -61.08251953 317.01123047 C-51.14627002 317.23553581 -44.27374741 315.92089728 -36.50244141 309.33056641 C-32.16456325 305.10792143 -28.87413251 300.91101607 -26.50244141 295.33056641 C-26.92396484 294.71568359 -27.34548828 294.10080078 -27.77978516 293.46728516 C-28.32763672 292.65904297 -28.87548828 291.85080078 -29.43994141 291.01806641 C-29.98521484 290.21755859 -30.53048828 289.41705078 -31.09228516 288.59228516 C-32.50244141 286.33056641 -32.50244141 286.33056641 -33.50244141 283.33056641 C-32.42994141 283.35119141 -31.35744141 283.37181641 -30.25244141 283.39306641 C-27.35453717 283.344768 -25.21632 283.19900756 -22.50244141 282.33056641 C-23.87222805 279.28211966 -25.46373159 277.12829977 -27.75244141 274.70556641 C-35.03233656 266.54418082 -39.22583571 258.43581565 -39.87744141 247.45556641 C-40.68221365 236.68503123 -45.95332946 228.35464002 -53.89697266 221.16259766 C-56.37808471 219.13121098 -58.90404393 217.20902573 -61.50244141 215.33056641 C-62.12634766 214.86908203 -62.75025391 214.40759766 -63.39306641 213.93212891 C-73.37787781 207.11640982 -85.99667951 203.62901417 -97.50244141 200.33056641 C-98.10348934 192.06615729 -96.09200208 184.58393131 -94.08447266 176.64599609 C-93.10693103 172.7571518 -92.17898758 168.85681346 -91.25244141 164.95556641 C-91.07745117 164.23626953 -90.90246094 163.51697266 -90.72216797 162.77587891 C-90.03097617 159.88316476 -89.50244141 157.31698709 -89.50244141 154.33056641 C-97.02238165 154.33056641 -106.99203282 165.69983148 -112.50244141 170.33056641 Z M-78.43994141 177.70556641 C-82.6223907 182.07669762 -85.38562556 187.70564043 -87.50244141 193.33056641 C-85.86454127 196.60636669 -82.32870148 197.19586954 -79.06494141 198.45556641 C-78.37078125 198.73271484 -77.67662109 199.00986328 -76.96142578 199.29541016 C-71.78330655 201.33056641 -71.78330655 201.33056641 -69.50244141 201.33056641 C-67.76920251 197.31957551 -66.64602855 193.25422718 -65.62744141 189.01806641 C-65.28119602 187.60527932 -64.9348383 186.19251977 -64.58837891 184.77978516 C-64.41145508 184.0532373 -64.23453125 183.32668945 -64.05224609 182.578125 C-63.13417956 178.82514074 -62.19219628 175.07816675 -61.25244141 171.33056641 C-60.91378978 169.97642723 -60.57523779 168.62226314 -60.23681641 167.26806641 C-59.99447266 166.29869141 -59.75212891 165.32931641 -59.50244141 164.33056641 C-65.3395017 164.33056641 -74.15983897 173.82069866 -78.43994141 177.70556641 Z M44.49755859 248.33056641 C44.31140772 254.92562602 44.9173661 260.87814014 46.24755859 267.33056641 C46.40482422 268.16845703 46.56208984 269.00634766 46.72412109 269.86962891 C48.46867489 278.53871931 51.42391136 285.49961467 57.12255859 292.33056641 C63.15879283 299.78850167 67.80172865 307.98797491 72.49755859 316.33056641 C76.81236413 301.45787808 60.86089365 275.26526909 53.83740234 262.48681641 C47.59909756 251.34716663 47.59909756 251.34716663 45.49755859 248.33056641 C45.16755859 248.33056641 44.83755859 248.33056641 44.49755859 248.33056641 Z M73.49755859 316.33056641 C74.49755859 318.33056641 74.49755859 318.33056641 74.49755859 318.33056641 Z " fill="#B6975D" transform="translate(429.50244140625,142.66943359375)"/>
<path d="M0 0 C-0.56382224 6.99365488 -1.62360399 13.76100843 -3.0625 20.625 C-3.24876953 21.53378906 -3.43503906 22.44257813 -3.62695312 23.37890625 C-4.08017296 25.5869003 -4.53789693 27.79385124 -5 30 C-4.56429687 29.54109375 -4.12859375 29.0821875 -3.6796875 28.609375 C1.88332862 22.87778264 7.96216017 18.90291652 14.875 14.9375 C15.17994385 14.76250977 15.17994385 14.76250977 16.72314453 13.87695312 C21.05358495 11.43526068 25.27344226 9.51249848 30 8 C31.5534365 12.37786651 30.44186928 15.18626825 28.91210938 19.3347168 C28.00975485 21.97149527 27.30818232 24.58496693 26.65234375 27.29296875 C25.45027986 32.18783591 24.21841042 37.0733044 22.95703125 41.953125 C22.78197052 42.63104599 22.60690979 43.30896698 22.42654419 44.00743103 C21.88891746 46.08838786 21.3507221 48.16919709 20.8125 50.25 C20.44071226 51.68879098 20.06896721 53.127593 19.69726562 54.56640625 C18.79866771 58.04439777 17.89949761 61.52224104 17 65 C17.60811523 65.29640381 18.21623047 65.59280762 18.84277344 65.89819336 C29.44320139 71.31237753 40.07611992 80.45805031 44 92 C45.40883797 97.5229094 46.59341456 103.09166948 47.3828125 108.73828125 C48.83384037 118.41694588 54.31801585 126.0213826 61.51953125 132.46484375 C64.28076058 135.328071 64.96228257 137.68748412 65.4375 141.625 C65.33438283 146.2394933 63.4677319 149.63678377 61.28515625 153.625 C60 156 60 156 58.625 159.5625 C53.65969061 170.06603909 44.94383557 178.49615772 34 182.5 C27.67098758 184.33719414 21.97295754 184.54037135 15.47265625 183.65625 C9.3146886 182.82127134 4.60391629 183.10371851 -1 186 C-3.875 188.4375 -3.875 188.4375 -6 191 C-6.2784375 191.28875 -6.2784375 191.28875 -7.6875 192.75 C-13.0473931 201.93838817 -11.58036261 213.80982053 -9.09765625 223.63671875 C-2.58684021 243.58622981 13.538068 257.3586302 29.57421875 269.7734375 C35.74509548 274.55570302 41.67253916 279.26273449 47 285 C47.4125 285.4125 47.4125 285.4125 49.5 287.5 C49.9125 287.9125 49.9125 287.9125 52 290 C52.48726562 290.44085937 52.97453125 290.88171875 53.4765625 291.3359375 C69.19417715 306.01067725 79.95294974 326.60248719 86 347 C86.21414551 347.70995117 86.42829102 348.41990234 86.64892578 349.15136719 C88.95610195 356.95999874 90.74546425 363.85450018 89 372 C87.86800647 371.0919838 86.74467637 370.17316174 85.625 369.25 C84.99851562 368.73953125 84.37203125 368.2290625 83.7265625 367.703125 C80.74497172 364.7620083 79.85365455 361.8727955 79.25 357.8125 C72.76730254 324.0628842 49.62573835 296.02648548 22.90625 275.74267578 C15.59119312 270.18937166 8.44205639 264.56236644 2 258 C1.401875 257.443125 0.80375 256.88625 0.1875 256.3125 C-1 255 -1 255 -1 253 C-1.99 252.67 -2.98 252.34 -4 252 C-5.38671875 250.4765625 -5.38671875 250.4765625 -6.6875 248.625 C-7.12449219 248.01914062 -7.56148437 247.41328125 -8.01171875 246.7890625 C-9 245 -9 245 -9 242 C-9.66 242 -10.32 242 -11 242 C-18.90303988 227.65144809 -22.6532819 212.89375757 -19.3046875 196.62109375 C-16.29067142 187.51572583 -11.0862747 181.03485029 -3 176 C0.43734643 174.85421786 3.06386394 174.90610113 6.6875 174.9296875 C8.04037737 174.92109116 9.39324383 174.91061075 10.74609375 174.8984375 C12.86167053 174.88187531 14.97481919 174.87469414 17.09033203 174.90039062 C28.07559735 175.01441555 35.81389918 173.00352225 43.96044922 165.09741211 C47.05885638 161.75677299 49.16305724 158.1841474 51 154 C50.566875 153.38511719 50.13375 152.77023437 49.6875 152.13671875 C49.130625 151.32847656 48.57375 150.52023437 48 149.6875 C47.443125 148.88699219 46.88625 148.08648437 46.3125 147.26171875 C45 145 45 145 45 142 C48.63 141.67 52.26 141.34 56 141 C55.41992188 140.31035156 54.83984375 139.62070312 54.2421875 138.91015625 C38.36786859 119.81382212 38.36786859 119.81382212 37.5625 106 C36.91533481 96.36578616 32.6650947 88.91013495 26 82 C22.47331322 79.108937 18.79664903 76.52209829 15 74 C14.04351562 73.32582031 13.08703125 72.65164063 12.1015625 71.95703125 C8.7979438 69.8725061 5.57061433 68.42993163 1.9375 67 C1.29280762 66.74581299 0.64811523 66.49162598 -0.01611328 66.22973633 C-5.46111335 64.12141418 -10.97494811 62.37948576 -16.5859375 60.76171875 C-19 60 -19 60 -20 59 C-20.72969153 50.82745489 -18.63106947 43.31924586 -16.62939453 35.47070312 C-15.94924693 32.80076761 -15.28409472 30.12736792 -14.62109375 27.453125 C-13.42436375 22.63278623 -12.21513764 17.81572993 -11 13 C-19.2151523 17.8237267 -26.35104578 23.42993476 -33.48095703 29.68945312 C-34.99455474 30.99530213 -36.55021145 32.25186887 -38.10546875 33.5078125 C-45.7933076 40.12703138 -52.2711169 49.09020586 -57.08984375 58.01953125 C-60.13109816 63.50677674 -64.13257402 66.74319674 -69.03125 70.6015625 C-78.76390108 78.46452008 -85.9694594 87.10101401 -92 98 C-92.23710693 98.4278479 -92.23710693 98.4278479 -93.43701172 100.59301758 C-97.56524622 108.41002094 -100.12413992 116.3201327 -102.5 124.8125 C-105.47550486 135.12739469 -108.54779128 145.2127083 -113 155 C-113.22236328 155.51046875 -113.22236328 155.51046875 -114.34765625 158.09375 C-121.04273442 172.56556242 -135.5439728 192.7719864 -150 200 C-152.0625 198.3125 -152.0625 198.3125 -154 196 C-154.09582321 192.26289486 -153.02384437 191.02751273 -150.5625 188.1875 C-148 186 -148 186 -146 186 C-145.67 185.34 -145.67 185.34 -144 182 C-143.34 182 -142.68 182 -142 182 C-141.87367188 181.71318359 -141.87367188 181.71318359 -141.234375 180.26171875 C-139.84946823 177.72418387 -138.22845244 175.91748138 -136.25 173.8125 C-125.428233 161.83615027 -120.07100316 148.06077789 -115 133 C-114.53779562 131.64061303 -114.0755572 130.28123763 -113.61328125 128.921875 C-111.79305786 123.53724374 -110.01938978 118.14757117 -108.4375 112.6875 C-105.59842065 103.16638858 -101.71195349 94.18807126 -96 86 C-95.34 86 -94.68 86 -94 86 C-93.94714844 85.46761719 -93.89429688 84.93523437 -93.83984375 84.38671875 C-92.59272661 80.84258586 -90.1083931 78.48506223 -87.5625 75.8125 C-87.02625 75.24241211 -86.49 74.67232422 -85.9375 74.08496094 C-72.38122549 59.83164394 -72.38122549 59.83164394 -67 59 C-66.89558594 58.28457031 -66.79117188 57.56914062 -66.68359375 56.83203125 C-65.92477733 53.68836323 -64.73506294 51.44784227 -63.0625 48.6875 C-62.53785156 47.80449219 -62.01320313 46.92148437 -61.47265625 46.01171875 C-60.98667969 45.34785156 -60.50070312 44.68398438 -60 44 C-59.34 44 -58.68 44 -58 44 C-57.80277344 43.32453125 -57.60554688 42.6490625 -57.40234375 41.953125 C-55.46402722 37.87132194 -52.66124016 35.00146026 -49.5625 31.75 C-48.93504883 31.08613281 -48.30759766 30.42226563 -47.66113281 29.73828125 C-42.45648839 24.31424349 -37.03914583 19.49275849 -31 15 C-30.16984375 14.37738281 -29.3396875 13.75476563 -28.484375 13.11328125 C-10.39316703 0 -10.39316703 0 0 0 Z M0.0625 36.375 C-4.11994929 40.74613122 -6.88318415 46.37507402 -9 52 C-7.36209986 55.27580028 -3.82626007 55.86530313 -0.5625 57.125 C0.13166016 57.40214844 0.82582031 57.67929687 1.54101562 57.96484375 C6.71913485 60 6.71913485 60 9 60 C10.73323889 55.98900911 11.85641286 51.92366077 12.875 47.6875 C13.22124538 46.27471292 13.5676031 44.86195336 13.9140625 43.44921875 C14.09098633 42.7226709 14.26791016 41.99612305 14.45019531 41.24755859 C15.36826185 37.49457433 16.31024512 33.74760035 17.25 30 C17.58865162 28.64586083 17.92720362 27.29169673 18.265625 25.9375 C18.50796875 24.968125 18.7503125 23.99875 19 23 C13.16293971 23 4.34260243 32.49013225 0.0625 36.375 Z " fill="#1A1A1A" transform="translate(351,284)"/>
<path d="M0 0 C2.50441742 0.37822226 3.73748461 0.72800068 5.52050781 2.57543945 C5.99327148 3.24792725 6.46603516 3.92041504 6.953125 4.61328125 C7.48591064 5.36085693 8.01869629 6.10843262 8.56762695 6.87866211 C9.12281006 7.68182861 9.67799316 8.48499512 10.25 9.3125 C10.8277417 10.13049072 11.4054834 10.94848145 12.00073242 11.79125977 C15.82371899 17.22814666 19.53741101 22.73224956 23.18359375 28.2890625 C25.01299767 31.01939867 26.9243499 33.66768218 28.875 36.3125 C39.15414461 50.37550295 48.12663818 63.72981338 51.62060547 81.08935547 C53.14154175 88.5182061 55.60855637 92.76306229 61 98 C64.15017921 102.229458 67.05090388 106.62883084 70 111 C70.53882813 111.75410156 71.07765625 112.50820313 71.6328125 113.28515625 C76.18872402 119.74558816 79.51492048 126.79440477 82.96337891 133.8828125 C84.30479689 136.62251498 85.68020821 139.34441255 87.05566406 142.06713867 C90.3166788 148.52986259 93.45433593 155.03814599 96.4831543 161.61279297 C98.80864802 166.64542746 101.28897969 171.58805433 103.8359375 176.51171875 C106.11691135 181.3874917 106.14046052 184.67785091 105 190 C103.4375 192.4375 103.4375 192.4375 102 194 C101.649375 193.0925 101.29875 192.185 100.9375 191.25 C99.47530236 187.81761117 97.67179488 184.69579373 95.75 181.5 C91.11512687 173.65636855 87.41453548 165.42444844 83.71484375 157.11279297 C74.29814662 135.97440634 63.96783867 116.73241087 49.22265625 98.84375 C44.5608467 92.67545238 43.11621125 85.79749703 41.203125 78.44140625 C38.36065015 67.65873838 33.40209772 59.05323764 27 50 C26.64873047 49.48566406 26.64873047 49.48566406 24.87109375 46.8828125 C19.1058193 38.4463286 13.0774248 30.21304323 7 22 C5.41072979 23.58927021 5.74354542 25.31400447 5.61108398 27.51977539 C5.55109726 28.48069595 5.49111053 29.44161652 5.42930603 30.43165588 C5.36884598 31.476436 5.30838593 32.52121613 5.24609375 33.59765625 C5.18092056 34.66165146 5.11574738 35.72564667 5.04859924 36.82188416 C4.84053494 40.23517457 4.63895325 43.64881363 4.4375 47.0625 C4.29795143 49.37046847 4.15798307 51.6784116 4.01757812 53.98632812 C3.67350585 59.65726654 3.33476136 65.32850476 3 71 C-0.9786958 72.14634193 -4.9582847 73.26724942 -8.96875 74.296875 C-44.73236093 83.63029731 -44.73236093 83.63029731 -54.67578125 97.6328125 C-56.278401 100.49767259 -57.3346658 103.409209 -58.4375 106.5 C-61.5448369 115.02298121 -65.96367729 120.53539055 -74.0859375 124.65234375 C-83.50142476 129.00669107 -92.93968279 133.24931982 -102.6171875 136.9921875 C-106.69623516 138.71742405 -110.60464076 140.78385936 -114.53125 142.828125 C-117 144 -117 144 -119 144 C-118.6875 145.9375 -118.6875 145.9375 -118 148 C-117.01 148.33 -116.02 148.66 -115 149 C-114.67 148.67 -114.67 148.67 -113 147 C-110.875 147.375 -110.875 147.375 -109 148 C-108.74303898 154.42402546 -108.74303898 154.42402546 -110.26171875 157.828125 C-111 161 -111 161 -109.40234375 164.2890625 C-108.60186317 165.41635085 -107.7793015 166.52822362 -106.9375 167.625 C-106.73930664 167.90472656 -106.73930664 167.90472656 -105.73632812 169.3203125 C-98.71228804 178.94290699 -88.40842645 183.59013014 -77 186 C-71.21318813 186.42568529 -65.53786204 185.79013047 -59.79150391 185.13476562 C-46.82924483 183.7024718 -33.86930501 182.88159803 -22.91796875 191.28515625 C-12.68404204 200.43524551 -6.89800521 211.80897482 -5.79711914 225.52832031 C-4.77306269 251.83201465 -12.75912042 274.24554188 -29.625 294.5 C-34.59579871 300.62242584 -37.69409649 307.89363895 -41 315 C-41.42539062 315.8765625 -41.85078125 316.753125 -42.2890625 317.65625 C-47.26930247 328.75724292 -48.53684446 341.23091019 -47.6171875 353.2421875 C-48 356 -48 356 -50.2578125 357.8828125 C-53 359 -53 359 -57 359 C-57.69719606 327.35504539 -48.89679104 303.78992408 -29.875 278.5 C-17.92665515 262.17059537 -12.52328155 242.75197756 -15.49609375 222.64453125 C-17.77952003 212.67227977 -21.27783506 203.84056278 -30 198 C-39.16395719 192.68490483 -49.08959212 193.69613231 -59.3203125 194.296875 C-76.76511797 195.31819506 -91.48464399 194.48955434 -105.8125 183.3125 C-112.61871129 176.85090701 -118.03520552 168.79640152 -121.9375 160.30078125 C-123 158 -123 158 -124.1875 155.91796875 C-126.89623723 151.14946258 -128.33684519 146.47516744 -127 141 C-124.25235832 136.98332718 -121.85955162 135.10271366 -117.40625 133.203125 C-116.3023291 132.72359375 -115.1984082 132.2440625 -114.06103516 131.75 C-112.88589355 131.255 -111.71075195 130.76 -110.5 130.25 C-108.67312979 129.45862558 -106.84626243 128.66724383 -105.01992798 127.87463379 C-103.18544229 127.08061584 -101.34809271 126.29322545 -99.51074219 125.50585938 C-94.53360637 123.37102115 -89.57485386 121.19722474 -84.625 119 C-83.81869141 118.65098633 -83.01238281 118.30197266 -82.18164062 117.94238281 C-74.35455166 114.47378912 -70.55637564 110.84813742 -67 103 C-59.96092247 87.70456085 -59.96092247 87.70456085 -53 82 C-52.2575 81.29875 -51.515 80.5975 -50.75 79.875 C-46.47051194 76.95716723 -41.75151233 75.03041858 -37 73 C-36.87499508 65.41544226 -37.24607257 57.98771686 -37.9375 50.4375 C-39.07195744 37.3052048 -39.60244136 24.17276618 -40 11 C-36 11 -36 11 -33.046875 13.67578125 C-31.93480101 14.87600026 -30.83655005 16.0891263 -29.75 17.3125 C-29.17080811 17.9526001 -28.59161621 18.5927002 -27.99487305 19.25219727 C-23.25172931 24.5648096 -18.97860921 30.09071009 -15 36 C-14.56993652 36.63744141 -14.13987305 37.27488281 -13.69677734 37.93164062 C-10.77324185 42.27169262 -7.87813009 46.62972459 -5 51 C-4.98541748 50.2972998 -4.97083496 49.59459961 -4.95581055 48.87060547 C-4.01635992 8.03271984 -4.01635992 8.03271984 0 0 Z M-30 32 C-30.30179444 44.79273087 -29.40781517 57.28660534 -28 70 C-27.66842896 69.93361328 -27.66842896 69.93361328 -25.99047852 69.59765625 C-25.10803467 69.42105469 -24.22559082 69.24445313 -23.31640625 69.0625 C-22.40262207 68.87945312 -21.48883789 68.69640625 -20.54736328 68.5078125 C-18.72930834 68.14538637 -16.90998242 67.78931204 -15.08984375 67.4375 C-14.37957031 67.293125 -13.66929687 67.14875 -12.9375 67 C-12.20402344 66.855625 -11.47054687 66.71125 -10.71484375 66.5625 C-10.14894531 66.376875 -9.58304688 66.19125 -9 66 C-8.67 65.34 -8.34 64.68 -8 64 C-12.88573029 52.59314853 -20.86672305 41.33558746 -29 32 C-29.33 32 -29.66 32 -30 32 Z " fill="#1B1B1B" transform="translate(767,250)"/>
<path d="M0 0 C19.5320548 8.56774183 31.35585381 26.29567753 39.0625 45.375 C42.36207535 53.92394127 44.14517039 62.47428285 45.25 71.5625 C45.33686727 72.19695038 45.42373453 72.83140076 45.51323414 73.4850769 C46.5884481 82.4169414 46.39809572 91.40229204 46.39526367 100.3828125 C46.39825944 102.2824968 46.40166292 104.1821805 46.40544128 106.0818634 C46.41423586 111.21554259 46.41661727 116.34920509 46.41725707 121.48289108 C46.41796933 124.69010338 46.42010681 127.89731146 46.42275429 131.10452271 C46.43198754 142.29152698 46.43609107 153.47851938 46.43530273 164.66552734 C46.43470014 175.10056163 46.44529258 185.53554453 46.4610464 195.9705658 C46.474096 204.93293502 46.47948783 213.89528736 46.47884732 222.85766602 C46.47859189 228.20975558 46.4814692 233.56179928 46.49202538 238.91387939 C46.50166474 243.93719525 46.50181438 248.96042093 46.49450874 253.98373985 C46.4934582 255.83090025 46.4958534 257.67806616 46.5018692 259.52521706 C46.50952505 262.03767132 46.50498759 264.54980899 46.49723816 267.06225586 C46.50238172 267.800562 46.50752529 268.53886814 46.51282471 269.2995472 C46.478273 274.334227 46.478273 274.334227 44.25 276.5625 C41.9375 276.86328125 41.9375 276.86328125 39.25 276.875 C38.363125 276.89175781 37.47625 276.90851563 36.5625 276.92578125 C36.1809375 276.86583984 36.1809375 276.86583984 34.25 276.5625 C31.86233075 272.98099612 31.98023884 270.46407308 32.02294922 266.33319092 C32.02280036 265.96229469 32.02280036 265.96229469 32.02204704 264.08533502 C32.02343944 261.59160631 32.03914026 259.09816987 32.0546875 256.60449219 C32.0585252 254.81873236 32.06145311 253.03297038 32.0635376 251.24720764 C32.06987073 247.39378657 32.08242645 243.54045266 32.09967041 239.68706512 C32.12673615 233.57281655 32.13851122 227.45859701 32.14794922 221.34429932 C32.17205784 207.23436602 32.21588254 193.12450675 32.26040649 179.01462555 C32.30092238 166.13496517 32.33707673 153.25533224 32.35683632 140.37562108 C32.36509778 135.30498458 32.3775879 130.23443508 32.40032959 125.16384125 C32.56210919 88.64549108 32.56210919 88.64549108 31.4140625 75.00488281 C31.37821548 74.57822767 31.37821548 74.57822767 31.19680786 72.41909409 C30.29844106 63.7073098 27.61270037 55.61072773 24.25 47.5625 C24.023125 47.01464844 24.023125 47.01464844 22.875 44.2421875 C18.17650264 34.01761653 11.24523518 23.73930032 1.6484375 17.61328125 C1.18695313 17.26652344 0.72546875 16.91976562 0.25 16.5625 C0.25 15.9025 0.25 15.2425 0.25 14.5625 C-0.42417969 14.30726563 -1.09835937 14.05203125 -1.79296875 13.7890625 C-5.30132756 12.33381195 -8.67678552 10.65302165 -12.0625 8.9375 C-12.70767578 8.61265625 -13.35285156 8.2878125 -14.01757812 7.953125 C-15.59597541 7.15808044 -17.17311694 6.36054366 -18.75 5.5625 C-18.75 4.2425 -18.75 2.9225 -18.75 1.5625 C-12.27798113 -2.32071132 -6.93268721 -2.42199649 0 0 Z " fill="#B6985F" transform="translate(446.75,497.4375)"/>
<path d="M0 0 C0.309375 0.2475 0.309375 0.2475 1.875 1.5 C1.68359375 3.32421875 1.68359375 3.32421875 0.875 5.5 C-1.27734375 6.95703125 -1.27734375 6.95703125 -4.0625 8.3125 C-9.80125502 11.26747503 -14.95353209 14.64814804 -20.125 18.5 C-20.72828125 18.9125 -21.3315625 19.325 -21.953125 19.75 C-38.08429796 31.81069007 -45.46261729 55.93217499 -48.51530075 74.77246094 C-49.67873767 82.94671659 -49.55669645 91.16721132 -49.54150391 99.40625 C-49.5489033 101.33815023 -49.55761421 103.27004581 -49.56752014 105.20193481 C-49.59061484 110.39093737 -49.5959789 115.57981992 -49.59817934 120.76886749 C-49.60388028 126.21362742 -49.62717482 131.65831138 -49.64877319 137.10302734 C-49.68712851 147.38959802 -49.71145831 157.67614663 -49.72989786 167.96277046 C-49.76346358 186.43084452 -49.82096093 204.89885318 -49.88388956 223.36684799 C-49.90540731 229.84698147 -49.92066035 236.32709179 -49.93072915 242.80725288 C-49.93772099 246.81924365 -49.94859552 250.83121759 -49.96037102 254.84319687 C-49.964947 256.7101291 -49.96778066 258.57706649 -49.96879387 260.44400406 C-49.97035418 262.98044531 -49.97790205 265.51679886 -49.98696899 268.05322266 C-49.98590074 268.80133965 -49.98483249 269.54945663 -49.98373187 270.32024384 C-50.0109619 275.3859619 -50.0109619 275.3859619 -51.125 276.5 C-52.78929051 276.59823937 -54.45781931 276.62973631 -56.125 276.625 C-57.0325 276.62757813 -57.94 276.63015625 -58.875 276.6328125 C-61.125 276.5 -61.125 276.5 -62.125 275.5 C-62.22946859 272.87824405 -62.26832413 270.28259871 -62.26544189 267.66012573 C-62.26692746 267.24438437 -62.26692746 267.24438437 -62.2744453 265.14048111 C-62.28317233 262.3317626 -62.28464397 259.5230865 -62.28613281 256.71435547 C-62.29075857 254.70901396 -62.2957829 252.70367333 -62.30117798 250.69833374 C-62.314337 245.23061836 -62.32075503 239.76291528 -62.32518864 234.29518652 C-62.32811686 230.87669172 -62.33222143 227.45820029 -62.33669281 224.03970718 C-62.35038383 213.33800105 -62.36003969 202.63630261 -62.3638947 191.93458831 C-62.36836403 179.59506935 -62.38585274 167.25566178 -62.4148953 154.91617668 C-62.43656903 145.37459745 -62.4466022 135.83304941 -62.44793582 126.29144585 C-62.4489808 120.59616897 -62.45482174 114.90099658 -62.47275543 109.2057457 C-62.48933206 103.8361151 -62.49134536 98.46666639 -62.48261642 93.0970192 C-62.48185086 91.13599406 -62.48612459 89.17495878 -62.49607468 87.21395874 C-62.56606416 72.5480184 -61.49654758 58.97282327 -55.8125 45.25 C-55.50618652 44.49259521 -55.19987305 43.73519043 -54.88427734 42.95483398 C-50.49786262 32.31590423 -45.19805629 22.8475402 -37.125 14.5 C-36.465 14.5 -35.805 14.5 -35.125 14.5 C-34.87621094 13.91089844 -34.62742187 13.32179688 -34.37109375 12.71484375 C-28.45184357 2.19379405 -11.1716685 -5.36240088 0 0 Z " fill="#B9995C" transform="translate(624.125,497.5)"/>
<path d="M0 0 C4.41554434 5.19475805 8 13.09618623 8 20 C-12.90007754 16.62901975 -12.90007754 16.62901975 -20.125 7.3515625 C-22.46346655 4.41873571 -24.76293375 2.82603737 -28 1 C-27.67 0.34 -27.34 -0.32 -27 -1 C-18.39368878 -3.26334808 -7.71279286 -5.38101828 0 0 Z " fill="#171717" transform="translate(373,391)"/>
<path d="M0 0 C5.25932319 1.88018638 10.60165754 3.32725928 16 4.75 C16 6.07 16 7.39 16 8.75 C5.15321656 17.31895892 -4.68821674 18.08653385 -18 17.75 C-17.416156 13.82488009 -16.23489976 11.01487201 -14.1875 7.625 C-13.68605469 6.77679688 -13.18460938 5.92859375 -12.66796875 5.0546875 C-9.28855861 0.38524491 -5.62605817 -2.10977182 0 0 Z " fill="#1C1D1D" transform="translate(733,355.25)"/>
<path d="M0 0 C0.70703125 1.53515625 0.70703125 1.53515625 1 4 C0.00692102 6.62137064 -1.03152649 8.9624982 -2.3125 11.4375 C-2.67351807 12.14471191 -3.03453613 12.85192383 -3.40649414 13.58056641 C-7.17256092 20.70910702 -11.8077961 26.86007713 -17 33 C-17.75410156 33.89460938 -18.50820312 34.78921875 -19.28515625 35.7109375 C-24.44129683 41.62185704 -30.06965975 46.87440321 -36 52 C-36 51.01 -36 50.02 -36 49 C-34.27099251 47.29513223 -32.54072489 45.74623984 -30.6875 44.1875 C-23.8220137 38.16251814 -18.36214 31.36527744 -13 24 C-12.37996094 23.15050781 -11.75992188 22.30101562 -11.12109375 21.42578125 C-8.15823782 17.17085281 -5.8827884 12.86507066 -3.87890625 8.0859375 C-2.71520435 5.32408499 -1.36708061 2.66580719 0 0 Z " fill="#454445" transform="translate(239,431)"/>
</svg>
